<svg id="visual" viewBox="0 0 1920 1080" width="1920" height="1080" xmlns="http://www.w3.org/2000/svg" xmlns:xlink="http://www.w3.org/1999/xlink" version="1.1"><path d="M0 853L45.7 873.7C91.3 894.3 182.7 935.7 274.2 904.3C365.7 873 457.3 769 548.8 716.3C640.3 663.7 731.7 662.3 823 707.3C914.3 752.3 1005.7 843.7 1097 806.7C1188.3 769.7 1279.7 604.3 1371.2 561.7C1462.7 519 1554.3 599 1645.8 631.3C1737.3 663.7 1828.7 648.3 1874.3 640.7L1920 633L1920 1081L1874.3 1081C1828.7 1081 1737.3 1081 1645.8 1081C1554.3 1081 1462.7 1081 1371.2 1081C1279.7 1081 1188.3 1081 1097 1081C1005.7 1081 914.3 1081 823 1081C731.7 1081 640.3 1081 548.8 1081C457.3 1081 365.7 1081 274.2 1081C182.7 1081 91.3 1081 45.7 1081L0 1081Z" fill="#eb6868" stroke-linecap="round" stroke-linejoin="miter"></path></svg>